<svg width="6000" height="6000" xmlns="http://www.w3.org/2000/svg" preserveAspectRatio="xMidYMid meet" version="1.0">

 <g>
  <title>Layer 1</title>
  <g fill="#000000" id="layer101">
   <path id="svg_1" d="m0,3000l0,-3000l4500,0l4500,0l0,3000l0,3000l-4500,0l-4500,0l0,-3000z"/>
  </g>
  <g stroke="null" fill="#fefefe" id="layer102">
   <path stroke="null" id="svg_2" d="m2325.43443,4728.21539c-42.54667,-15.955 -98.00929,-66.09929 -119.28262,-108.64596c-9.87691,-18.99405 -31.91,-89.65191 -50.14429,-156.51096c-49.38453,-188.42096 -73.69691,-258.31906 -121.56191,-357.08811c-46.34548,-94.21048 -90.41167,-155.7512 -112.44477,-155.7512c-7.59762,0 -18.99405,12.91595 -26.59167,29.63072c-22.79286,50.14429 -87.37262,62.30048 -145.87429,27.35143c-39.50762,-22.79286 -58.50167,-60.02119 -63.06024,-122.32167c-6.0781,-88.89215 40.26738,-148.15358 126.12048,-161.82929c134.47786,-21.27333 260.59834,63.82 351.76977,235.5262c22.79286,43.30643 51.66381,88.89215 63.82,102.56786c23.55262,24.31238 65.33953,41.02714 104.08738,41.02714c30.39048,0 30.39048,8.35738 3.03905,44.06619c-37.22833,47.10524 -44.06619,83.57381 -34.94905,188.42096c8.35738,97.24953 21.27333,135.23762 60.78095,180.06358c26.59167,30.39048 37.9881,34.94905 37.9881,15.955c0,-21.27333 42.54667,-56.22238 68.37857,-56.22238c69.8981,0 105.60691,47.10524 106.36667,138.27667c0,43.30643 -3.03905,53.9431 -19.75381,74.45667c-11.39643,12.91595 -30.39048,28.87095 -43.30643,35.70881c-34.18929,17.47452 -144.35477,20.51357 -185.38191,5.31833z"/>
   <path stroke="null" id="svg_3" d="m3876.86829,4733.53372c-31.15024,-7.59762 -50.14429,-18.99405 -72.17738,-42.54667c-15.19524,-15.955 -18.99405,-29.63072 -21.27333,-72.17738c-5.31833,-88.13238 34.94905,-144.35477 103.32762,-144.35477c23.55262,0 62.30048,25.07214 62.30048,40.26738c0,5.31833 3.79881,14.43548 7.59762,20.51357c5.31833,9.11714 9.87691,8.35738 26.59167,-7.59762c50.14429,-46.34548 79.01524,-138.27667 79.775,-251.4812c0,-56.98214 -9.11714,-91.17143 -34.94905,-126.12048c-9.87691,-12.91595 -18.23429,-25.83191 -18.23429,-28.11119c0,-2.27929 21.27333,-15.19524 47.865,-28.11119c63.82,-31.91 83.57381,-52.42357 128.39977,-133.7181c90.41167,-164.10858 188.42096,-238.56525 314.54144,-239.32501c64.57976,0 105.60691,17.47452 137.51691,60.02119c18.23429,23.55262 21.27333,35.70881 23.55262,85.09334c3.79881,98.00929 -35.70881,151.95239 -115.48381,158.79024c-50.14429,3.79881 -74.45667,-8.35738 -93.45072,-47.865c-7.59762,-15.955 -18.23429,-26.59167 -26.59167,-26.59167c-19.75381,0 -60.78095,59.26143 -107.88619,155.7512c-46.34548,94.21048 -72.17738,169.42691 -122.32167,360.88692c-38.74786,145.11453 -55.46262,182.34286 -104.08738,223.37001c-50.14429,43.30643 -139.7962,61.54072 -215.01263,43.30643z"/>
   <path stroke="null" id="svg_4" d="m1324.06821,4494.96847c-73.69691,-34.94905 -110.92524,-94.97024 -116.24358,-184.62215c-6.0781,-111.685 34.18929,-180.82334 118.52286,-205.13572c106.36667,-31.15024 191.46001,31.91 191.46001,141.31572c0,60.78095 -22.0331,95.73 -77.49572,123.08143c-24.31238,12.15619 -44.06619,25.07214 -44.06619,28.87095c0,12.91595 28.87095,22.79286 66.85905,22.79286c29.63072,0 44.06619,-4.55857 73.69691,-26.59167c24.31238,-16.71476 40.26738,-23.55262 44.82595,-18.99405c12.15619,12.15619 -33.42952,69.13834 -81.29453,102.56786c-37.22833,25.07214 -50.90405,30.39048 -91.17143,31.91c-37.22833,2.27929 -54.70286,-0.75976 -85.09334,-15.19524z"/>
   <path stroke="null" id="svg_5" d="m4868.35761,4502.56609c-33.42952,-10.63667 -95.73,-70.65786 -102.56786,-98.76905c-9.11714,-35.70881 6.0781,-39.50762 41.02714,-9.11714c28.11119,22.79286 37.9881,26.59167 72.17738,26.59167c23.55262,0 46.34548,-4.55857 56.98214,-12.15619l17.47452,-12.15619l-44.82595,-25.07214c-56.22238,-30.39048 -78.25548,-66.09929 -78.25548,-125.36072c0,-109.40572 85.09334,-172.46596 191.46001,-141.31572c71.41762,20.51357 112.44477,79.775 118.52286,169.42691c4.55857,70.65786 -7.59762,115.48381 -45.58572,162.58905c-40.26738,50.90405 -89.65191,75.21643 -151.95239,74.45667c-26.59167,-0.75976 -60.02119,-4.55857 -74.45667,-9.11714z"/>
   <path stroke="null" id="svg_6" d="m1675.07822,4390.88109c-31.91,-6.0781 -82.05429,-48.62476 -101.8081,-86.61286c-18.23429,-34.94905 -40.26738,-119.28262 -40.26738,-154.23167c0,-39.50762 18.99405,-55.46262 66.09929,-55.46262c58.50167,0 69.13834,9.87691 104.08738,94.97024c13.67571,32.66976 31.15024,53.9431 51.66381,65.33953c9.87691,5.31833 6.83786,-3.03905 -9.11714,-28.87095c-12.15619,-20.51357 -26.59167,-53.18334 -31.91,-73.69691c-9.11714,-34.94905 -9.11714,-37.22833 8.35738,-50.90405c19.75381,-15.955 68.37857,-18.99405 105.60691,-6.0781c20.51357,6.83786 46.34548,43.30643 47.10524,65.33953c0.75976,9.87691 43.30643,63.82 60.02119,75.21643c11.39643,8.35738 8.35738,-0.75976 -11.39643,-32.66976c-41.78691,-69.13834 -33.42952,-116.24358 20.51357,-116.24358c62.30048,0 165.6281,214.25286 134.47786,278.07287c-9.11714,19.75381 -15.19524,22.79286 -55.46262,26.59167c-62.30048,6.83786 -312.26215,6.0781 -347.97096,-0.75976z"/>
   <path stroke="null" id="svg_7" d="m4326.64735,4393.16037c-49.38453,-4.55857 -62.30048,-24.31238 -55.46262,-84.33357c5.31833,-52.42357 53.9431,-155.7512 91.17143,-195.25882c28.11119,-28.87095 51.66381,-33.42952 79.01524,-14.43548c21.27333,15.19524 21.27333,34.94905 -2.27929,85.8531c-10.63667,22.79286 -18.23429,42.54667 -16.71476,44.06619c6.0781,5.31833 31.15024,-29.63072 53.9431,-75.21643c26.59167,-53.9431 45.58572,-66.85905 95.73,-66.85905c50.14429,0 71.41762,16.71476 66.09929,53.18334c-1.51952,15.19524 -11.39643,44.82595 -21.27333,65.33953c-9.87691,20.51357 -18.99405,41.02714 -20.51357,44.82595c-2.27929,4.55857 6.83786,-2.27929 19.75381,-13.67571c12.15619,-12.15619 30.39048,-41.78691 38.74786,-66.09929c20.51357,-56.22238 44.06619,-75.97619 91.17143,-75.97619c50.14429,0 69.13834,15.19524 69.13834,55.46262c0,82.81405 -44.06619,182.34286 -98.00929,221.09072l-32.66976,23.55262l-160.30977,0.75976c-88.89215,0.75976 -177.02453,-0.75976 -197.5381,-2.27929z"/>
   <path stroke="null" id="svg_8" d="m2341.38943,4295.15109c-9.87691,-37.9881 9.11714,-109.40572 35.70881,-136.75715c31.15024,-31.91 55.46262,-42.54667 328.21715,-135.23762l229.4481,-78.25548l56.98214,27.35143c31.15024,15.19524 79.01524,37.22833 106.36667,49.38453l49.38453,21.27333l-68.37857,26.59167c-143.595,56.22238 -367.72477,133.7181 -530.31383,183.86239c-92.69096,28.11119 -176.26477,53.9431 -185.38191,56.98214c-14.43548,4.55857 -17.47452,2.27929 -22.0331,-15.19524z"/>
   <path stroke="null" id="svg_9" d="m3926.25282,4291.35228c-394.31644,-123.84119 -562.22383,-183.10263 -784.07431,-277.3131c-615.40716,-260.59834 -1016.56146,-510.56002 -1461.02219,-907.91551c-300.10596,-268.95572 -523.47597,-550.8274 -671.62955,-849.41384c-75.21643,-151.19262 -99.52881,-238.56525 -99.52881,-354.80882c0,-104.84715 13.67571,-111.685 59.26143,-31.15024c56.98214,101.04834 326.69763,436.10335 490.04644,609.32907c309.22311,327.45739 709.61764,643.51835 1103.17432,869.92741c380.64073,218.81144 987.69051,474.09144 1435.95005,602.49121c62.30048,18.23429 113.96429,36.46857 116.24358,41.78691c5.31833,15.955 -38.74786,51.66381 -85.8531,69.13834c-35.70881,13.67571 -53.9431,15.955 -85.09334,12.15619c-45.58572,-5.31833 -544.7493,-171.7062 -705.05907,-234.00667c-251.4812,-98.76905 -417.86906,-180.06358 -621.48526,-303.90477c-229.4481,-140.55596 -427.74597,-281.11191 -570.58121,-403.43358c-36.46857,-31.91 -68.37857,-57.74191 -70.65786,-57.74191c-9.87691,0 37.9881,56.22238 91.93119,109.40572c174.74524,170.18667 556.90549,406.47263 975.53432,604.01073c167.90739,79.01524 261.3581,115.48381 483.96835,191.46001c290.98882,98.00929 406.47263,140.55596 428.50573,157.27072c31.15024,22.79286 51.66381,58.50167 56.98214,99.52881c4.55857,37.22833 0,77.49572 -9.87691,75.97619c-2.27929,0 -37.22833,-10.63667 -76.73595,-22.79286z"/>
   <path stroke="null" id="svg_10" d="m2325.43443,4062.66393c-17.47452,-3.79881 -42.54667,-16.71476 -54.70286,-28.11119c-24.31238,-22.79286 -31.91,-53.9431 -12.91595,-53.9431c6.0781,0 109.40572,-31.91 229.4481,-71.41762l218.05167,-72.17738l87.37262,44.06619l87.37262,44.06619l-101.8081,34.94905c-192.97953,67.61881 -363.92596,113.96429 -409.51168,110.92524c-6.0781,-0.75976 -25.83191,-3.79881 -43.30643,-8.35738z"/>
   <path stroke="null" id="svg_11" d="m3539.53399,3779.27274c-92.69096,-33.42952 -104.84715,-38.74786 -98.76905,-44.82595c1.51952,-1.51952 63.06024,-34.94905 135.99739,-72.93715c336.57453,-177.02453 573.62026,-332.77573 719.49455,-473.33168c63.82,-61.54072 114.72405,-121.56191 82.05429,-96.48977c-8.35738,6.0781 -31.91,25.83191 -53.18334,44.82595c-59.26143,51.66381 -224.88953,174.74524 -338.09406,249.20191c-266.67644,177.78429 -561.46407,341.89287 -597.17288,333.53549c-27.35143,-6.83786 -170.94643,-74.45667 -167.14762,-78.25548c1.51952,-2.27929 57.74191,-28.11119 123.84119,-58.50167c547.02859,-250.72144 974.77456,-536.39192 1404.79981,-936.78646c214.25286,-199.81739 530.31383,-573.62026 667.07097,-788.63288c39.50762,-63.06024 46.34548,-53.9431 45.58572,60.78095c0,90.41167 -2.27929,104.84715 -24.31238,170.94643c-64.57976,189.18072 -214.25286,439.90216 -388.99811,649.59645c-261.3581,314.54144 -694.4224,675.42836 -1094.05718,911.71432c-123.84119,72.93715 -295.54739,163.34881 -310.74263,162.58905c-6.83786,0 -54.70286,-15.19524 -106.36667,-33.42952zm1287.03671,-904.1167c145.87429,-143.595 304.66453,-340.37334 395.0762,-489.28668c41.78691,-68.37857 75.21643,-136.75715 69.8981,-142.07548c-1.51952,-1.51952 -25.83191,36.46857 -54.70286,85.09334c-55.46262,92.69096 -169.42691,248.44215 -253.00072,344.93192c-26.59167,31.15024 -109.40572,120.04238 -183.10263,197.5381c-96.48977,101.04834 -123.08143,132.95834 -96.48977,113.96429c21.27333,-14.43548 75.97619,-63.82 122.32167,-110.16548z"/>
   <path stroke="null" id="svg_12" d="m2930.20493,3441.17868c-15.19524,-7.59762 -47.865,-37.22833 -72.17738,-65.33953c-24.31238,-28.11119 -72.17738,-72.17738 -105.60691,-98.00929c-33.42952,-26.59167 -70.65786,-58.50167 -83.57381,-72.17738l-22.79286,-23.55262l-4.55857,-130.67905c-3.79881,-123.84119 -5.31833,-133.7181 -28.11119,-189.94048c-26.59167,-64.57976 -26.59167,-88.89215 0.75976,-107.88619c36.46857,-25.83191 75.21643,-7.59762 103.32762,47.865c26.59167,53.9431 62.30048,176.26477 72.93715,248.44215c11.39643,82.05429 31.91,118.52286 76.73595,137.51691c36.46857,15.19524 37.9881,14.43548 34.18929,-25.07214c-3.03905,-42.54667 9.87691,-55.46262 56.98214,-55.46262c45.58572,0 53.9431,12.91595 42.54667,66.85905c-4.55857,22.79286 -8.35738,43.30643 -6.83786,44.06619c0.75976,0.75976 15.19524,4.55857 31.15024,7.59762c27.35143,4.55857 29.63072,3.79881 23.55262,-9.11714c-3.03905,-7.59762 -9.11714,-29.63072 -13.67571,-47.865c-7.59762,-28.87095 -6.83786,-34.18929 6.0781,-43.30643c14.43548,-10.63667 69.13834,-14.43548 90.41167,-6.0781c15.955,6.0781 15.955,45.58572 0.75976,82.05429l-11.39643,27.35143l31.15024,0c25.07214,0 30.39048,-2.27929 26.59167,-12.15619c-10.63667,-28.87095 -13.67571,-72.17738 -5.31833,-82.05429c15.19524,-18.23429 66.85905,-22.79286 88.89215,-8.35738c20.51357,12.91595 21.27333,28.87095 6.0781,84.33357c-3.79881,13.67571 -1.51952,15.19524 23.55262,12.15619c22.0331,-2.27929 26.59167,-6.0781 22.0331,-15.955c-10.63667,-25.07214 -12.15619,-54.70286 -2.27929,-66.09929c19.75381,-23.55262 48.62476,-33.42952 78.25548,-25.07214c29.63072,8.35738 34.94905,24.31238 19.75381,63.06024c-10.63667,28.11119 6.0781,25.83191 47.10524,-5.31833c43.30643,-32.66976 56.22238,-61.54072 70.65786,-157.27072c6.0781,-44.06619 15.19524,-96.48977 19.75381,-117.7631c10.63667,-47.865 48.62476,-120.04238 80.53476,-153.47191c20.51357,-22.0331 28.11119,-25.83191 53.18334,-23.55262l28.87095,2.27929l-1.51952,45.58572c0,25.07214 -15.19524,101.04834 -31.91,168.66715c-17.47452,67.61881 -34.94905,153.47191 -38.74786,189.94048c-4.55857,36.46857 -12.15619,74.45667 -16.71476,84.33357c-5.31833,9.87691 -33.42952,37.22833 -63.06024,60.78095c-29.63072,23.55262 -77.49572,69.8981 -105.60691,102.56786c-70.65786,80.53476 -80.53476,85.09334 -175.50501,76.73595c-98.00929,-7.59762 -133.7181,-7.59762 -235.5262,-0.75976c-75.21643,4.55857 -86.61286,3.79881 -110.92524,-9.87691z"/>
   <path stroke="null" id="svg_13" d="m2963.63445,3057.4989c-20.51357,-14.43548 -22.0331,-38.74786 -6.0781,-83.57381c6.0781,-15.955 9.87691,-30.39048 9.11714,-31.15024c-0.75976,-0.75976 -12.91595,-3.79881 -26.59167,-6.83786l-24.31238,-5.31833l4.55857,53.9431c5.31833,53.18334 5.31833,53.18334 -15.19524,58.50167c-25.83191,6.0781 -57.74191,-7.59762 -57.74191,-24.31238c0,-7.59762 10.63667,-31.91 22.79286,-53.9431l23.55262,-41.02714l-24.31238,-27.35143c-29.63072,-34.18929 -40.26738,-60.02119 -52.42357,-123.84119c-11.39643,-58.50167 -24.31238,-85.8531 -47.10524,-101.8081c-24.31238,-17.47452 -47.10524,-15.19524 -124.60096,12.15619c-63.82,22.0331 -71.41762,22.79286 -94.21048,13.67571c-48.62476,-19.75381 -113.96429,-127.64 -103.32762,-170.18667c2.27929,-9.87691 16.71476,-25.07214 31.15024,-34.18929c14.43548,-8.35738 33.42952,-26.59167 41.78691,-40.26738c15.19524,-23.55262 15.955,-32.66976 11.39643,-154.23167c-6.0781,-151.19262 2.27929,-202.09667 46.34548,-301.62549c23.55262,-53.18334 28.87095,-74.45667 33.42952,-139.03643c5.31833,-69.8981 15.955,-112.44477 56.22238,-220.33096c3.03905,-8.35738 -3.03905,-1.51952 -13.67571,15.19524c-29.63072,45.58572 -47.10524,98.00929 -61.54072,186.14167c-7.59762,43.30643 -28.11119,120.80215 -46.34548,170.94643c-37.9881,107.88619 -51.66381,196.01858 -44.82595,281.11191c4.55857,66.09929 -3.79881,131.43881 -19.75381,140.55596c-16.71476,10.63667 -44.06619,-9.11714 -60.02119,-42.54667c-13.67571,-26.59167 -17.47452,-57.74191 -24.31238,-177.02453c-12.15619,-202.09667 -5.31833,-256.03977 54.70286,-433.82406c53.9431,-162.58905 68.37857,-189.94048 132.95834,-255.28001c84.33357,-84.33357 208.93453,-144.35477 370.00406,-179.30382c66.09929,-14.43548 101.04834,-16.71476 230.20786,-16.71476c131.43881,0 159.55001,2.27929 211.21382,16.71476c146.63405,40.26738 285.67049,148.91334 382.16025,297.82668c44.06619,68.37857 63.06024,113.20453 102.56786,243.12382l33.42952,110.16548l-0.75976,117.7631c0,106.36667 -2.27929,123.84119 -20.51357,179.30382c-25.83191,77.49572 -48.62476,112.44477 -75.21643,115.48381c-33.42952,3.79881 -39.50762,-18.23429 -41.78691,-156.51096c-1.51952,-142.07548 -5.31833,-156.51096 -34.94905,-126.88024c-9.87691,9.87691 -9.87691,16.71476 3.03905,57.74191c10.63667,34.18929 14.43548,69.13834 14.43548,132.19858c0,99.52881 5.31833,110.92524 66.85905,139.7962c56.98214,26.59167 67.61881,63.82 39.50762,139.7962c-8.35738,22.0331 -26.59167,51.66381 -41.02714,65.33953c-34.18929,33.42952 -69.13834,37.22833 -138.27667,15.955c-50.90405,-15.19524 -55.46262,-15.19524 -84.33357,-3.79881c-34.18929,13.67571 -49.38453,36.46857 -63.06024,94.21048c-8.35738,34.18929 -18.23429,50.14429 -62.30048,95.73l-52.42357,55.46262l15.955,46.34548c9.11714,25.07214 14.43548,52.42357 12.15619,60.02119c-9.11714,28.87095 -76.73595,43.30643 -95.73,20.51357c-6.83786,-8.35738 -7.59762,-22.0331 -1.51952,-54.70286c3.79881,-24.31238 6.83786,-44.82595 6.0781,-44.82595c0,-0.75976 -18.23429,0 -39.50762,2.27929l-39.50762,3.79881l10.63667,25.83191c15.955,37.22833 13.67571,76.73595 -3.79881,86.61286c-16.71476,8.35738 -53.9431,9.87691 -72.17738,3.03905c-16.71476,-6.0781 -16.71476,-76.73595 0,-100.28857c11.39643,-16.71476 11.39643,-16.71476 -24.31238,-16.71476c-30.39048,0 -34.18929,1.51952 -29.63072,13.67571c3.03905,6.83786 9.11714,29.63072 13.67571,50.14429c6.83786,32.66976 6.0781,37.9881 -6.0781,47.10524c-18.99405,14.43548 -75.21643,13.67571 -87.37262,-0.75976c-9.87691,-12.15619 -3.79881,-84.33357 8.35738,-91.93119c15.955,-9.11714 4.55857,-18.23429 -22.79286,-18.23429l-30.39048,0l11.39643,26.59167c13.67571,33.42952 13.67571,67.61881 -0.75976,79.775c-18.23429,15.19524 -66.09929,17.47452 -85.09334,3.79881zm282.63144,-341.13311c41.02714,-41.02714 39.50762,-115.48381 -5.31833,-205.89548c-43.30643,-86.61286 -92.69096,-163.34881 -104.84715,-163.34881c-20.51357,0 -35.70881,37.22833 -68.37857,164.10858c-34.18929,131.43881 -37.22833,181.5831 -12.15619,181.5831c9.87691,0 22.0331,-12.15619 34.94905,-34.18929c10.63667,-18.99405 25.07214,-34.94905 31.91,-36.46857c8.35738,-1.51952 24.31238,17.47452 47.865,54.70286c19.75381,31.91 41.02714,57.74191 46.34548,57.74191c6.0781,0 19.75381,-8.35738 29.63072,-18.23429zm-387.47858,-246.92263c60.78095,-34.94905 143.595,-116.24358 154.23167,-151.19262c12.91595,-41.02714 11.39643,-111.685 -2.27929,-138.27667c-17.47452,-34.18929 -78.25548,-59.26143 -163.34881,-67.61881c-148.91334,-15.19524 -189.94048,11.39643 -189.94048,123.08143c0,106.36667 22.0331,178.54405 66.09929,218.81144c47.10524,44.06619 79.01524,47.865 135.23762,15.19524zm695.94193,-8.35738c51.66381,-14.43548 61.54072,-34.18929 74.45667,-152.71215c11.39643,-101.8081 -4.55857,-141.31572 -69.13834,-174.74524c-79.775,-41.02714 -245.4031,-15.19524 -283.3912,44.06619c-18.23429,26.59167 -16.71476,83.57381 2.27929,120.80215c17.47452,33.42952 88.89215,104.84715 135.23762,134.47786c52.42357,32.66976 93.45072,41.02714 140.55596,28.11119z"/>
  </g>
 </g>
</svg>