<svg width="1024" height="856" xmlns="http://www.w3.org/2000/svg" xmlns:xlink="http://www.w3.org/1999/xlink" xml:space="preserve" overflow="hidden"><defs><clipPath id="clip0"><rect x="1468" y="647" width="1024" height="856"/></clipPath></defs><g clip-path="url(#clip0)" transform="translate(-1468 -647)"><path d="M1529 1378C1529 1168.68 1730.92 999 1980 999 2229.08 999 2431 1168.68 2431 1378 2431 1383.32 2430.87 1388.64 2430.6 1393.96L2366.36 1391.69C2375.65 1218.03 2210.2 1071.13 1996.82 1063.57 1783.43 1056.01 1602.92 1190.66 1593.64 1364.31 1593.39 1368.87 1593.27 1373.44 1593.27 1378Z" fill-rule="evenodd"/><path d="M1468 1378 1542.63 1378 1542.63 1378 1588.37 1378 1588.37 1378 1663 1378 1565.5 1503Z" fill-rule="evenodd"/><path d="M1882 745 1980 647 2078 745 2029 745 2029 1307 2078 1307 1980 1405 1882 1307 1931 1307 1931 745Z" fill-rule="evenodd"/><path d="M2297 1378 2371.63 1378 2371.63 1378 2417.37 1378 2417.37 1378 2492 1378 2394.5 1503Z" fill-rule="evenodd"/></g></svg>