<?xml version="1.0" encoding="utf-8"?>
<svg viewBox="0 0 500 500" xmlns="http://www.w3.org/2000/svg">
  <g transform="matrix(1, 0, 0, 1, -167.5044097900391, -25.491682052612305)">
    <title>RaceCourse</title>
    <rect x="169.483" y="28.33" width="131.71" height="336.481" rx="7" ry="7" style="fill: rgb(216, 216, 216); stroke: rgb(0, 0, 0);">
      <title>Race Area</title>
    </rect>
    <path style="fill: rgb(216, 216, 216); stroke-dasharray: 4; stroke: rgb(58, 242, 15);" d="M 207.257 213.718 L 263.917 213.221">
      <title>StartLine</title>
    </path>
    <g>
      <title>Bouys</title>
      <ellipse style="stroke: rgb(0, 0, 0); fill: rgb(58, 242, 15);" cx="205.765" cy="213.718" rx="5.467" ry="5.467">
        <title>StartPin</title>
      </ellipse>
      <ellipse style="stroke: rgb(0, 0, 0); fill: rgb(58, 242, 15);" cx="266.899" cy="213.22" rx="5.467" ry="5.467">
        <title>Committee</title>
      </ellipse>
      <g transform="matrix(1, 0, 0, 1, 0.994034, 0.000001)">
        <title>Mark1</title>
        <ellipse style="stroke: rgb(0, 0, 0); fill: rgb(244, 239, 59);" cx="262.923" cy="58.648" rx="5.467" ry="5.467">
          <title>Mark1</title>
        </ellipse>
        <text style="fill: rgb(51, 51, 51); font-family: Antonio; font-size: 11px; letter-spacing: -1.3px; white-space: pre;" x="252.485" y="50.199"><title>Mark1</title>Mark 1</text>
      </g>
      <g transform="matrix(1, 0, 0, 1, 9.254646, 287.027893)">
        <title>Mark2</title>
        <ellipse style="stroke: rgb(0, 0, 0); fill: rgb(244, 239, 59);" cx="262.923" cy="58.648" rx="5.467" ry="5.467">
          <title>Mark1</title>
        </ellipse>
        <text style="fill: rgb(51, 51, 51); font-family: Antonio; font-size: 11px; letter-spacing: -1.3px; white-space: pre;" x="252.485" y="50.199"><title>Mark1</title>Mark 1</text>
      </g>
      <g transform="matrix(1, 0, 0, 1, -60.824871, 20.129288)">
        <title>Mark3</title>
        <ellipse style="stroke: rgb(0, 0, 0); fill: rgb(244, 239, 59);" cx="262.923" cy="58.648" rx="5.467" ry="5.467">
          <title>Mark1</title>
        </ellipse>
        <text style="fill: rgb(51, 51, 51); font-family: Antonio; font-size: 11px; letter-spacing: -1.3px; white-space: pre;" x="252.485" y="50.199"><title>Mark1</title>Mark 1</text>
      </g>
    </g>
  </g>
</svg>